<svg xmlns="http://www.w3.org/2000/svg" width="128" height="128" fill="none" viewBox="0 0 24 24"><path fill="#FFDBA6" fill-rule="evenodd" d="M12 .75c-4.013 0-6.755 2.983-6.755 6.641 0 .42.036.862.104 1.317a1.972 1.972 0 0 0-.599 1.402c0 1.01.748 1.742 1.63 2.003.59 1.283 1.41 2.505 2.435 3.375a.75.75 0 0 0 .485.178h5.4a.75.75 0 0 0 .485-.178c1.026-.87 1.844-2.092 2.434-3.375.883-.261 1.631-.992 1.631-2.002 0-.56-.24-1.045-.599-1.403.068-.455.104-.898.104-1.317C18.755 3.733 16.013.75 12 .75Z" clip-rule="evenodd"/><path fill="#486472" fill-rule="evenodd" d="M18.709 8.25h-5.157a3.75 3.75 0 0 1-2.342-.822l-.902-.721A3.75 3.75 0 0 1 6.97 8.75H5.308l.041-.042a8.97 8.97 0 0 1-.104-1.317C5.245 3.733 7.987.75 12 .75s6.755 2.983 6.755 6.641c0 .277-.016.565-.046.859Z" clip-rule="evenodd"/><path fill="#E5E6E8" fill-rule="evenodd" d="M6.385 17.25a5.75 5.75 0 0 0-5.339 3.614l-.194.486a1.75 1.75 0 0 0 1.625 2.4h19.046a1.75 1.75 0 0 0 1.625-2.4l-.337-.843A5.181 5.181 0 0 0 18 17.25H6.385Z" clip-rule="evenodd"/><path fill="#90A7B2" fill-rule="evenodd" d="M7.133 14.25a1.75 1.75 0 0 0-1.737 1.967l.86 6.876A.75.75 0 0 0 7 23.75h10a.75.75 0 0 0 .744-.657l.86-6.876a1.75 1.75 0 0 0-1.737-1.967H7.133Z" clip-rule="evenodd"/><path fill="#ECEFF1" fill-rule="evenodd" d="M10.25 19a.75.75 0 0 1 .75-.75h2a.75.75 0 0 1 0 1.5h-2a.75.75 0 0 1-.75-.75Z" clip-rule="evenodd"/></svg>